Motion_pl05
version=1
nRows=13
nColumns=43
inDegrees=yes
endheader
time	pelvis_tilt	pelvis_list	pelvis_rotation	pelvis_tx	pelvis_ty	pelvis_tz	hip_flexion_r	hip_adduction_r	hip_rotation_r	knee_angle_r	ankle_angle_r	subtalar_angle_r	mtp_angle_r	hip_flexion_l	hip_adduction_l	hip_rotation_l	knee_angle_l	ankle_angle_l	subtalar_angle_l	mtp_angle_l	lumbar_extension	lumbar_bending	lumbar_rotation	neck_flexion	neck_lateral_bending	neck_rotation	arm_flex_r	arm_add_r	arm_rot_r	elbow_flex_r	pro_sup_r	wrist_flex_r	wrist_dev_r	hand_finger_flex_r	arm_flex_l	arm_add_l	arm_rot_l	elbow_flex_l	pro_sup_l	wrist_flex_l	wrist_dev_l	hand_finger_flex_l
      2.00750000	     -7.39276448	     -7.61645621	     85.51453780	     -0.02526869	      0.78496613	      0.32462472	     55.72065150	    -10.42620485	      2.06021062	    -79.31537128	      2.85969020	      5.51964858	     36.22152240	     49.28643691	      0.47400232	    -14.84553010	    -73.65160228	      8.05788242	     -7.17223077	     36.58885725	    -73.25119868	     -3.50398987	     -7.33581810	     25.77303173	     -0.30008744	      0.49081701	     43.29614022	    -19.28176876	     14.99162883	     32.51939617	    108.40956979	    -23.51992778	     -3.77479965	     24.10005373	     35.69230386	    -15.98570734	     -4.35533619	     41.23410590	    141.21333414	    -10.85890138	      9.00113803	     79.78519692
      2.01000000	     -7.36002940	     -7.63631816	     85.48908390	     -0.02541801	      0.78551800	      0.32444416	     55.61854098	    -10.44569263	      1.97627058	    -79.14734751	      2.91598163	      5.58931016	     36.23901070	     49.18537256	      0.48143126	    -14.80067687	    -73.47231490	      8.14895759	     -7.17173153	     36.58902293	    -73.16069042	     -3.53262138	     -7.25611214	     25.52830640	     -0.23232907	      0.46588683	     43.03245700	    -19.31086358	     14.79061460	     32.40677216	    108.39337318	    -23.51697321	     -3.72371411	     24.13185534	     35.43342615	    -15.93319653	     -4.40654852	     41.15195249	    141.27839765	    -10.78815827	      8.96351565	     79.73625110
      2.01250000	     -7.34686056	     -7.64243676	     85.47518766	     -0.02556025	      0.78586766	      0.32416591	     55.54466765	    -10.44593817	      1.97041955	    -79.07148671	      2.91051055	      5.60334213	     36.23958465	     49.12279220	      0.48902365	    -14.78242475	    -73.40576797	      8.14305344	     -7.16333996	     36.58696655	    -73.07777358	     -3.53980733	     -7.24271596	     25.55541269	     -0.22202845	      0.45817855	     42.79448624	    -19.33039880	     14.77680526	     32.30062665	    108.39327860	    -23.50356321	     -3.69718439	     24.14398143	     35.16107567	    -15.92300703	     -4.39810723	     41.02415870	    141.29814824	    -10.75697545	      8.96871534	     79.72863265
      2.01500000	     -7.33337775	     -7.65734395	     85.45378858	     -0.02567119	      0.78627569	      0.32389913	     55.46634994	    -10.45000947	      1.94417617	    -78.96500213	      2.91213185	      5.62481891	     36.24178210	     49.05204634	      0.49544770	    -14.75721725	    -73.30536361	      8.14651617	     -7.15172976	     36.58519862	    -72.99328596	     -3.55537345	     -7.21525133	     25.53720450	     -0.20850443	      0.44785960	     42.56106441	    -19.35242103	     14.74687887	     32.19904707	    108.39318151	    -23.49355699	     -3.66854153	     24.15868073	     34.89963920	    -15.90847507	     -4.39249041	     40.92003496	    141.32379088	    -10.72353320	      8.96420311	     79.71628943
      2.01750000	     -7.27389263	     -7.66096052	     85.43901377	     -0.02572853	      0.78692099	      0.32374008	     55.31896512	    -10.44377945	      1.83628008	    -78.76351064	      2.97119779	      5.71719552	     36.26380675	     48.92907333	      0.47633755	    -14.69443349	    -73.11600487	      8.23211178	     -7.10726055	     36.58737663	    -72.92818487	     -3.57003830	     -7.11113530	     25.28434491	     -0.16031056	      0.39849170	     42.30713210	    -19.38388199	     14.54209150	     32.10717000	    108.39819016	    -23.50356236	     -3.61051111	     24.20402394	     34.64484593	    -15.87956278	     -4.42989983	     40.88091139	    141.43497901	    -10.65001766	      8.87781482	     79.64081464
      2.02000000	     -7.05140421	     -7.45392166	     85.50332521	     -0.02569803	      0.78747410	      0.32326041	     54.91629777	    -10.36053240	      1.61693173	    -78.68939153	      3.16432366	      5.97476427	     36.35094758	     48.65137258	      0.32666383	    -14.52180932	    -73.17757266	      8.47177156	     -6.87478275	     36.60165870	    -73.01532981	     -3.47429795	     -6.89747305	     25.02425207	     -0.12442484	      0.23862237	     41.97198607	    -19.28445167	     13.89273783	     32.06428807	    108.51006672	    -23.53162971	     -3.44272274	     24.36853803	     34.36160534	    -15.79038363	     -4.63216873	     40.75726548	    141.91622757	    -10.44366516	      8.50957256	     79.31181509
      2.02250000	     -7.04877241	     -7.47691842	     85.49329471	     -0.02574702	      0.78789704	      0.32304784	     54.85087364	    -10.36425266	      1.60765868	    -78.58154093	      3.15200238	      5.97401682	     36.34945808	     48.59194935	      0.33441353	    -14.51180936	    -73.07139633	      8.44963757	     -6.85276747	     36.59792020	    -72.93406329	     -3.48635174	     -6.88222329	     25.08779686	     -0.13484730	      0.24451173	     41.75305162	    -19.30570794	     13.90451650	     31.97118511	    108.53168701	    -23.51188554	     -3.41657703	     24.38453240	     34.13354861	    -15.77251770	     -4.63265812	     40.65453155	    141.94261908	    -10.41631914	      8.50523100	     79.30106757
      2.02500000	     -7.04413722	     -7.49604727	     85.47573750	     -0.02579834	      0.78833752	      0.32281989	     54.78167656	    -10.36471557	      1.58823304	    -78.46944599	      3.14073072	      5.97618933	     36.34821463	     48.52734833	      0.33489432	    -14.50217197	    -72.96292319	      8.43201464	     -6.82930694	     36.59483325	    -72.85787996	     -3.49536746	     -6.87275771	     25.11120560	     -0.14021966	      0.24636531	     41.54560220	    -19.32925364	     13.90547367	     31.88785714	    108.54874625	    -23.49830553	     -3.38821468	     24.39835763	     33.89379704	    -15.77063517	     -4.64134134	     40.55917750	    141.97213530	    -10.39598867	      8.49867317	     79.29132227
      2.02750000	     -6.79213017	     -7.18499869	     85.51590508	     -0.02570946	      0.78970409	      0.32226787	     54.15263726	    -10.25017211	      1.30196403	    -78.18046369	      3.22291099	      5.98475048	     36.45974009	     48.00820454	      0.12103830	    -14.38181063	    -72.79923470	      8.75365273	     -6.15590215	     36.59779021	    -73.17413505	     -3.36188072	     -6.69180027	     25.15648015	     -0.21172560	      0.31820272	     41.35005338	    -19.21187507	     13.17856724	     31.97038929	    109.36384742	    -23.31910393	     -2.88842119	     24.81647863	     33.60732626	    -15.49806215	     -5.67384443	     40.53954740	    143.31972328	    -10.21631417	      7.59417941	     78.69526149
      2.03000000	     -6.79506150	     -7.20177396	     85.49533916	     -0.02573562	      0.79006124	      0.32204911	     54.10116694	    -10.25423708	      1.29002575	    -78.10249832	      3.20455244	      5.98695615	     36.45742114	     47.95624325	      0.12781411	    -14.36571135	    -72.72778152	      8.72921195	     -6.15484798	     36.59292637	    -73.08627473	     -3.38204648	     -6.68939534	     25.14883494	     -0.21471224	      0.31499190	     41.14145055	    -19.22968604	     13.18871925	     31.89035263	    109.37428584	    -23.30517457	     -2.87397389	     24.82528927	     33.36762371	    -15.49581256	     -5.67077105	     40.44602957	    143.33518031	    -10.18691885	      7.60132966	     78.70008504
      2.03250000	     -6.79320434	     -7.22172736	     85.46624633	     -0.02573409	      0.79049496	      0.32194053	     54.04264590	    -10.26366708	      1.24121051	    -77.96907052	      3.17458035	      5.99587773	     36.45758320	     47.88859579	      0.12180531	    -14.36402536	    -72.58304913	      8.70100475	     -6.14782081	     36.58285756	    -72.98922763	     -3.41107511	     -6.69090438	     24.94576271	     -0.22624063	      0.30706726	     40.91865437	    -19.23966917	     13.15607420	     31.85781285	    109.40682414	    -23.28011594	     -2.86312814	     24.85146468	     33.11012601	    -15.50264218	     -5.74240125	     40.41362004	    143.38793575	    -10.14676413	      7.58508258	     78.70273016
      2.03500000	     -6.78914420	     -7.22862090	     85.45568877	     -0.02581577	      0.79084051	      0.32171808	     53.98732904	    -10.26511959	      1.24142205	    -77.90800277	      3.16034695	      5.99771641	     36.45568378	     47.83445816	      0.12580168	    -14.35761604	    -72.52697754	      8.68568508	     -6.14160931	     36.58026320	    -72.91373888	     -3.41617003	     -6.68826802	     24.96412311	     -0.22472978	      0.30621542	     40.72506716	    -19.26461697	     13.15847915	     31.76898295	    109.40961863	    -23.26738970	     -2.84131569	     24.85932645	     32.88495362	    -15.51255387	     -5.75336029	     40.31703287	    143.39874428	    -10.13069516	      7.59464327	     78.70525898
      2.03750000	     -6.78688269	     -7.23664125	     85.44050719	     -0.02587389	      0.79119283	      0.32150527	     53.92985840	    -10.27040204	      1.22836564	    -77.83129640	      3.14652041	      6.00022837	     36.45367867	     47.77421456	      0.12879219	    -14.35022840	    -72.45139386	      8.67152843	     -6.13272119	     36.57774791	    -72.83364053	     -3.42891338	     -6.68597683	     24.96165990	     -0.22571754	      0.30597816	     40.52525360	    -19.27030908	     13.16232170	     31.68870635	    109.41147183	    -23.25190141	     -2.81944599	     24.86915556	     32.66402566	    -15.50978753	     -5.77159476	     40.23249546	    143.40609414	    -10.11818246	      7.60268376	     78.70755775
